<?xml version="1.0" encoding="UTF-8" standalone="no"?>
<svg xmlns="http://www.w3.org/2000/svg" xmlns:xlink="http://www.w3.org/1999/xlink" width="138.47211" height="200" viewBox="0 0 138.47211 200" version="1.1">
    <style>
    .class1 {
        stroke-linejoin:miter; stroke-opacity:1; fill-opacity:1; fill-rule:nonzero; stroke:#9bc809; stroke-linecap:butt; stroke-miterlimit:4;
        stroke-dasharray:none; stroke-width:3; fill:url(#linearGradient3636);
    }
    </style>
    <defs>
        <linearGradient gradientUnits="userSpaceOnUse" y2="574.56134" x2="408.41495" y1="272.52576" x1="346.19025" id="linearGradient3636"
            xlink:href="#linearGradient3630"/>
        <linearGradient id="linearGradient3630">
            <stop id="stop4759" offset="0" style="stop-color:#47b600;stop-opacity:1;"/>
            <stop id="stop3634" offset="1" style="stop-color:#378800;stop-opacity:1"/>
        </linearGradient>
    </defs>
    <g transform="translate(-30.763947,-244.08332)">
        <g transform="matrix(0.41647324,0,0,0.41647324,-60.71085,153.17583)">
            <path class="class1"
                style="fill:url(#linearGradient3636);fill-opacity:1;fill-rule:nonzero;stroke:#9bc809;stroke-width:3;stroke-linecap:butt;stroke-linejoin:miter;stroke-miterlimit:4;stroke-dasharray:none;stroke-opacity:1;"
                d="m 381.375,219.78125 c -34.36735,2.33216 -53.56786,9.46792 -70.65625,46.46875 l -9.09375,11.96875 -16.78125,13.9375 c -11.43423,6.4656 -18.86258,11.7153 -52.875,25.71875 -12.81713,5.48606 -13.04107,18.90037 -6.9375,19.8125 7.45446,5.61048 50.27201,-4.8193 73.90625,-12.6875 16.89534,-4.69967 25.42228,-6.39944 31.96875,-6.25 51.53932,0.0268 53.54725,11.42495 55.53125,16.09375 -18.17702,-0.17402 -59.75247,-6.55023 -85.56431,21.41025 -4.1346,4.47877 -7.86473,9.83857 -11.02944,16.246 -6.00485,7.34242 -8.65574,13.36557 -12.5,19.84375 -18.21107,28.65134 -22.94692,56.49257 -26.4375,76.9375 -2.94221,24.81895 8.91106,42.54 25.375,59.3125 6.90435,5.96366 13.87431,11.63422 21.25,17.125 0.0981,3.23089 0.46421,7.00628 1.53125,13.1875 5.31453,8.59281 4.29226,16.94667 3.53125,24 -3.60141,24.2459 -11.57862,50.30526 -7.625,70.25 4.31886,9.43695 12.80742,21.32639 15.625,29.0625 1.11503,3.06148 4.27842,8.0223 5.375,-2.09375 -0.005,-4.70589 8.83913,-9.9656 13.15625,-10.34375 3.15203,-0.0991 6.21384,0.19391 11.28125,7.03125 1.05088,1.41793 -3.20875,6.19213 -2.09375,7.8125 1.68392,2.44718 6.24864,-3.57042 8.09375,0.25 0.11436,0.2368 8.11672,10.02367 9.96875,9.40625 5.17107,-1.69939 0.67111,-7.89009 17.1875,-4.8125 5.22131,1.92738 11.08331,1.29166 15.65625,5.8125 9.00219,6.24467 4.98937,-6.11784 25.5,-10.84375 11.99153,-1.28345 23.77071,-4.02326 29.5625,2.25 2.44333,0.73026 6.34429,2.70845 5.53125,-10.34375 -1.50463,-3.41685 0.237,-5.60387 -31.8125,-20.71875 -5.15655,-2.01804 -10.16847,-4.65063 -14.65625,-9.34375 -1.96697,-14.04671 7.80244,-44.43286 16.6875,-56.5625 1.56437,-1.93285 1.91386,-5.94164 2.09375,-10.25 0.50355,-0.005 0.96056,0.005 1.46875,0 71.09309,-9.46008 133.88254,-41.54769 126.4375,-127.125 -2.90252,-10.72843 -6.84026,-20.43503 -14.46875,-26.4375 -1.64006,-7.36449 -9.4773,-11.62371 -15.53125,-16.78125 -9.03451,-46.18597 -33.28489,-55.16995 -67.6875,-71.96875 14.33918,-7.67702 11.36933,-44.5121 1.125,-56.96875 -5.10148,-8.17582 -8.05647,-16.15724 -15.59375,-21.0625 -16.18314,-21.06843 -26.63563,-38.20097 -56.5,-39.34375 z m -65.53125,338.5625 c 5.03932,3.17946 10.34115,6.27855 15.96875,9.34375 24.91151,9.13063 44.83919,11.41517 68.78125,11.8125 0.73398,4.85067 1.18407,9.46287 0.5,13.25 -4.06703,22.5505 -12.62098,53.33615 -32.59375,64.90625 -1.85026,1.02271 -28.04599,-29.94217 -35.84375,-48 -4.1515,-11.5976 -9.48585,-23.57318 -15.65625,-35.84375 -1.19853,-5.96883 -1.34416,-10.88636 -1.15625,-15.46875 z"/>
        </g>
    </g>
</svg>
