<?xml version="1.0" encoding="UTF-8" standalone="no"?>
<svg xmlns:dc="http://purl.org/dc/elements/1.1/" xmlns:cc="http://creativecommons.org/ns#" xmlns:rdf="http://www.w3.org/1999/02/22-rdf-syntax-ns#" xmlns:svg="http://www.w3.org/2000/svg" xmlns="http://www.w3.org/2000/svg" xmlns:xlink="http://www.w3.org/1999/xlink" xmlns:sodipodi="http://sodipodi.sourceforge.net/DTD/sodipodi-0.dtd" xmlns:inkscape="http://www.inkscape.org/namespaces/inkscape" id="svg69" version="1.1" viewBox="0 0 138.47211 200" height="200" width="138.47211" sodipodi:docname="mallard.svg" inkscape:version="0.92.4 5da689c313, 2019-01-14">
  <sodipodi:namedview pagecolor="#ffffff" bordercolor="#666666" borderopacity="1" objecttolerance="10" gridtolerance="10" guidetolerance="10" inkscape:pageopacity="0" inkscape:pageshadow="2" inkscape:window-width="3840" inkscape:window-height="2124" id="namedview21" showgrid="false" inkscape:zoom="9.55" inkscape:cx="69.236053" inkscape:cy="100" inkscape:window-x="0" inkscape:window-y="0" inkscape:window-maximized="1" inkscape:current-layer="layer1" />
  <metadata id="metadata14">
    <rdf:RDF>
      <cc:Work rdf:about="">
        <dc:format>image/svg+xml</dc:format>
        <dc:type rdf:resource="http://purl.org/dc/dcmitype/StillImage" />
        <dc:title></dc:title>
      </cc:Work>
    </rdf:RDF>
  </metadata>
  <style id="style172">
.class1 {
    stroke-linejoin:miter;
    stroke-opacity:1;
    fill-opacity:1;
    fill-rule:nonzero;
    stroke:#9bc809;
    stroke-linecap:butt;
    stroke-miterlimit:4;
    stroke-dasharray:none;
    stroke-width:3;
    fill:url(#linearGradient3636);
}</style>
  <defs id="defs63">
    <linearGradient xlink:href="#linearGradient3630" id="linearGradient3636" x1="346.19025" y1="272.52576" x2="408.41495" y2="574.56134" gradientUnits="userSpaceOnUse" gradientTransform="matrix(0.41647324,0,0,0.41647324,-60.71085,153.17583)" />
    <linearGradient id="linearGradient3630">
      <stop style="stop-color:#47b600" offset="0" id="stop4759" />
      <stop style="stop-color:#378800" offset="1" id="stop3634" />
    </linearGradient>
  </defs>
  <g transform="translate(-30.763947,-244.08332)" id="layer1">
    <path inkscape:connector-curvature="0" class="class1" style="fill:url(#linearGradient3636);stroke:#9bc809;stroke-width:1.24941969" d="m 98.121632,244.70884 c -14.313082,0.97128 -22.30958,3.94313 -29.426437,19.35299 l -3.787304,4.98466 -6.988942,5.8046 c -4.76205,2.69275 -7.855759,4.87911 -22.021022,10.71117 -5.337992,2.2848 -5.431257,7.8715 -2.889283,8.25138 3.104583,2.33661 20.936947,-2.00711 30.779975,-5.28401 7.036457,-1.95728 10.5877,-2.66519 13.314129,-2.60295 21.464748,0.0112 22.300997,4.75818 23.127282,6.70261 -7.570245,-0.0725 -24.885307,-2.72799 -35.635248,8.9168 -1.72195,1.86529 -3.275449,4.0975 -4.593466,6.76602 -2.50086,3.05792 -3.604884,5.5664 -5.205916,8.26439 -7.584423,11.93252 -9.556778,23.52765 -11.010511,32.04241 -1.225352,10.33643 3.711218,17.71677 10.568008,24.70207 2.875477,2.48371 5.778279,4.84534 8.850057,7.13211 0.04086,1.34558 0.193331,2.91792 0.637724,5.49224 2.21336,3.57867 1.787612,7.05783 1.470671,9.99535 -1.49989,10.09777 -4.822185,20.9508 -3.175608,29.25725 1.79869,3.93024 5.333948,8.88187 6.507394,12.10375 0.464381,1.27503 1.781848,3.34108 2.238544,-0.87199 -0.0021,-1.95987 3.681261,-4.1504 5.479226,-4.30789 1.312736,-0.0413 2.587898,0.0808 4.698339,2.92832 0.437663,0.59053 -1.336359,2.57886 -0.871991,3.2537 0.701308,1.01919 2.602391,-1.48698 3.37083,0.10412 0.04763,0.0986 3.380397,4.17459 4.151718,3.91745 2.153612,-0.70775 0.279499,-3.28601 7.158134,-2.00428 2.174536,0.80271 4.615902,0.53795 6.520405,2.42075 3.74918,2.60074 2.07794,-2.54791 10.62007,-4.51613 4.99415,-0.53452 9.89987,-1.67558 12.31199,0.93707 1.01758,0.30413 2.64223,1.12799 2.30362,-4.3079 -0.62664,-1.42302 0.0987,-2.33386 -13.24906,-8.6288 -2.14756,-0.84046 -4.23489,-1.93686 -6.10393,-3.89142 -0.81919,-5.85008 3.24951,-18.5051 6.9499,-23.55677 0.65151,-0.80498 0.79707,-2.47454 0.87199,-4.26885 0.20971,-0.002 0.40004,0.002 0.61169,0 29.60837,-3.93987 55.7585,-17.3035 52.65784,-52.94416 -1.20883,-4.46811 -2.84879,-8.51065 -6.02585,-11.01051 -0.68304,-3.06712 -3.94704,-4.84097 -6.46835,-6.98895 -3.76263,-19.23522 -13.86227,-22.9768 -28.19003,-29.97305 5.97188,-3.19728 4.73502,-18.5381 0.46853,-23.72596 -2.12463,-3.40501 -3.3553,-6.72906 -6.49438,-8.77197 -6.73984,-8.77444 -11.09303,-15.90968 -23.530738,-16.38562 z M 70.82962,385.71106 c 2.098742,1.32416 4.306812,2.61485 6.650557,3.89142 10.374977,3.80267 18.674323,4.75412 28.645553,4.91959 0.30568,2.02018 0.49313,3.94103 0.20823,5.51827 -1.69381,9.39168 -5.2563,22.21308 -13.574421,27.03172 -0.770584,0.42593 -11.680404,-12.47011 -14.927963,-19.99072 -1.728988,-4.83009 -3.950602,-9.81759 -6.520409,-14.92796 -0.499156,-2.48586 -0.559807,-4.53388 -0.481547,-6.44232 z" id="path2832" />
  </g>
</svg>
