<?xml version="1.0" encoding="UTF-8" standalone="no"?>
<svg xmlns="http://www.w3.org/2000/svg" xmlns:xlink="http://www.w3.org/1999/xlink" version="1.1">
    <linearGradient id="gradient-vertical" x2="0" y2="1">
      <stop offset="0%" stop-color="yellow"/>
      <stop offset="100%" stop-color="orange"/>
    </linearGradient>
    <symbol id="speich-logo" viewBox="0 0 140 200">
	    <path d="M 68.121623,0.62552279 C 53.808543,1.5968228 45.812044,4.5686928 38.695188,19.978533 l -3.787303,4.98464 -6.988941,5.8046 c -4.762051,2.69274 -7.85576,4.87911 -22.0210219,10.71119 -5.33799148,2.28477 -5.4312565,7.87151 -2.889283,8.25138 3.104583,2.33662 20.9369459,-2.00711 30.7799739,-5.28401 7.036457,-1.95729 10.587698,-2.66522 13.314127,-2.60296 21.464747,0.0112 22.300996,4.75817 23.127283,6.7026 -8.782862,-0.0841 -30.682472,-3.64497 -40.228713,15.68284 -2.50086,3.05792 -3.604884,5.56641 -5.205915,8.26437 -7.584424,11.93254 -9.556779,23.52766 -11.010511,32.042407 -1.225352,10.33645 3.711218,17.71677 10.568008,24.70207 2.875477,2.48372 5.778279,4.84538 8.850056,7.1321 0.04086,1.34559 0.193331,2.91794 0.637724,5.49225 2.21336,3.57867 1.787612,7.05784 1.470671,9.99535 -1.49989,10.09777 -4.822185,20.95081 -3.175608,29.25725 1.79869,3.93026 5.333947,8.88187 6.507394,12.10375 0.464381,1.27503 1.781848,3.34107 2.238544,-0.87197 -0.0021,-1.95989 3.68126,-4.1504 5.479224,-4.30792 1.312736,-0.0413 2.587898,0.0808 4.698339,2.92835 0.437663,0.59052 -1.336359,2.57884 -0.871991,3.2537 0.701308,1.01919 2.602391,-1.48698 3.370831,0.10412 0.04763,0.0986 3.380396,4.17456 4.151717,3.91743 2.153612,-0.70776 0.279499,-3.28602 7.158133,-2.00428 2.174537,0.80271 4.615902,0.53796 6.520409,2.42075 3.749174,2.60075 2.07794,-2.5479 10.620071,-4.51611 4.994149,-0.53454 9.899863,-1.6756 12.311985,0.93707 1.017583,0.3041 2.642228,1.12797 2.303622,-4.30792 -0.626642,-1.42301 0.0987,-2.33383 -13.249061,-8.62878 -2.147564,-0.84049 -4.234892,-1.9369 -6.103934,-3.89144 -0.819187,-5.85008 3.249512,-18.50508 6.949902,-23.55678 0.651518,-0.80496 0.797066,-2.47451 0.871987,-4.26884 0.209716,-0.004 0.400045,0 0.611693,0 29.60835,-3.93984 55.7585,-17.30351 52.65785,-52.944167 -1.20886,-4.46809 -2.8488,-8.51062 -6.02586,-11.01051 -0.68307,-3.06711 -3.94705,-4.84096 -6.46833,-6.98892 -3.76267,-19.23523 -13.86228,-22.97683 -28.190052,-29.97307 5.971882,-3.19727 4.735022,-18.5381 0.468534,-23.72594 -2.124633,-3.40501 -3.355304,-6.72909 -6.494384,-8.77197 C 84.912519,8.2367328 80.559336,1.1014628 68.121623,0.62552279 Z M 40.829614,141.62774 c 2.09874,1.32417 4.30681,2.61486 6.650555,3.89144 10.374977,3.80265 18.674322,4.75413 28.645546,4.91959 0.305685,2.02019 0.493134,3.94105 0.208242,5.51827 -1.693812,9.39168 -5.256305,22.21306 -13.574426,27.0317 -0.770584,0.42592 -11.680404,-12.47009 -14.927963,-19.99072 -1.728988,-4.83009 -3.950602,-9.81757 -6.520407,-14.92794 -0.499156,-2.48585 -0.559806,-4.5339 -0.481547,-6.44234 z"/>
    </symbol>
    <!-- symbols below are taken from open-iconic http://useiconic.com copyright (c) 2014 Waybury -->
    <symbol id="map-marker" viewBox="0 0 8 8">
        <path d="M3 0c-1.66 0-3 1.34-3 3 0 2 3 5 3 5s3-3 3-5c0-1.66-1.34-3-3-3zm0 1c1.11 0 2 .9 2 2 0 1.11-.89 2-2 2-1.1 0-2-.89-2-2 0-1.1.9-2 2-2z" transform="translate(1)"/>
    </symbol>
    <symbol id="magnifying-glass" viewBox="0 0 8 8">
        <path d="M3.5 0c-1.93 0-3.5 1.57-3.5 3.5s1.57 3.5 3.5 3.5c.59 0 1.17-.14 1.66-.41a1 1 0 0 0 .13.13l1 1a1.02 1.02 0 1 0 1.44-1.44l-1-1a1 1 0 0 0-.16-.13c.27-.49.44-1.06.44-1.66 0-1.93-1.57-3.5-3.5-3.5zm0 1c1.39 0 2.5 1.11 2.5 2.5 0 .66-.24 1.27-.66 1.72-.01.01-.02.02-.03.03a1 1 0 0 0-.13.13c-.44.4-1.04.63-1.69.63-1.39 0-2.5-1.11-2.5-2.5s1.11-2.5 2.5-2.5z"/>
    </symbol>
    <symbol id="star" viewBox="0 0 8 8">
        <path d="M 4,0 2.7366814,2.8 0,3 1.6792955,5.0713834 1.5,8 4,6.4495683 6.5,8 6.2899558,5.0713834 8,3 5.2504738,2.8 Z" />
    </symbol>
</svg>